# xmcd CD database file
#
# Track frame offsets:
#	150
#	14899
#	29735
#	43418
#	56248
#	68001
#	81482
#	95762
#	109801
#	123472
#	137635
#	150162
#	162307
#	173619
#	186542
#	201213
#
# Disc length: 2862 seconds
#
# Revision: 3
# Processed by: cddbd v1.5.2PL0 Copyright (c) Steve Scherf et al.
# Submitted via: CDex 1.51
#
DISCID=ef0b2c10
DTITLE=Arthur Crudup - Dirt Road Blues
DYEAR=1941
DGENRE=Blues
TTITLE0=Death Valley Blues  [1941]
TTITLE1=Black Pony Blues  [1941]
TTITLE2=If I Get Lucky  [1941]
TTITLE3=Give Me A 32-20  [1942]
TTITLE4=Mean Old Frisco Blues  [1942]
TTITLE5=Rock Me Mama  [1944]
TTITLE6=Cool Disposition  [1944]
TTITLE7=Dirt Road Blues  [1946]
TTITLE8=She's Gone  [1946]
TTITLE9=Ethel Mae  [1946]
TTITLE10=So Glad You're Mine  [1946]
TTITLE11=Shout, Sister, Shout  [1949]
TTITLE12=My Baby Left Me  [1950]
TTITLE13=Too Much Competition  [1951]
TTITLE14=I'm Gonna Dig Myself A Hole  [1951]
TTITLE15=Never No More  [1951]
EXTD=YEAR: 1941
EXTT0=
EXTT1=
EXTT2=
EXTT3=
EXTT4=
EXTT5=
EXTT6=
EXTT7=
EXTT8=
EXTT9=
EXTT10=
EXTT11=
EXTT12=
EXTT13=
EXTT14=
EXTT15=
PLAYORDER=
